<svg xmlns="http://www.w3.org/2000/svg" width="24" height="24" viewBox="0 0 24 24" fill="none">
        <symbol id="load">
            <path d="M15.5,3.5H8.5C7.97,3.5 7.47,3.61 7.01,3.79L8.13,5.03C8.25,5.02 8.37,5 8.5,5H15.5C16.88,5 18,6.12 18,7.5V16.04L19.35,17.54C19.44,17.21 19.5,16.86 19.5,16.5V7.5C19.5,5.29 17.71,3.5 15.5,3.5Z"/>
            <path d="M13.5,9C13.5,8.17 12.83,7.5 12,7.5C11.53,7.5 11.11,7.72 10.84,8.06L12.81,10.26C13.23,9.99 13.5,9.53 13.5,9Z"/>
            <path d="M18.45,19.18L17.44,18.06L14.4,14.67L11.59,11.54L6.56,5.94L5.55,4.82L4.8,3.98C4.48,3.62 3.92,3.59 3.56,3.92C3.19,4.24 3.16,4.8 3.49,5.17L4.66,6.47C4.56,6.8 4.5,7.14 4.5,7.5V16.5C4.5,18.71 6.29,20.5 8.5,20.5H15.5C16.03,20.5 16.52,20.38 16.98,20.2L17.9,21.23C18.23,21.59 18.78,21.62 19.15,21.3C19.51,20.97 19.54,20.42 19.22,20.05L18.45,19.18ZM11.08,13.62L12.27,14.95C12.18,14.97 12.1,15 12,15C11.45,15 11,14.55 11,14C11,13.86 11.03,13.74 11.08,13.62ZM15.5,19H8.5C7.12,19 6,17.88 6,16.5V7.96L10.04,12.46C9.71,12.89 9.5,13.42 9.5,14C9.5,15.38 10.62,16.5 12,16.5C12.49,16.5 12.93,16.35 13.32,16.11L15.87,18.95C15.75,18.98 15.63,19 15.5,19Z"/>
    </symbol>
</svg>